<svg id="Camada_1" data-name="Camada 1" xmlns="http://www.w3.org/2000/svg" xmlns:xlink="http://www.w3.org/1999/xlink" viewBox="0 0 1920 1080"><defs><style>.cls-1{fill:#3fa9f5;stroke:#398ddb;}.cls-1,.cls-2,.cls-3{stroke-miterlimit:10;}.cls-1,.cls-3{stroke-width:2px;}.cls-2,.cls-3{fill:#398ddb;stroke:#fff;}</style></defs><path class="cls-1" d="M345.31,816.41q-6.06,0-14.77,7.4a177.63,177.63,0,0,0-18.74,19q-10,11.57-20.82,25.59t-20.83,27.87q-10,13.85-18.74,26t-14.76,19.34a39.48,39.48,0,0,1-14.39-10A38.77,38.77,0,0,1,213.55,915a243.22,243.22,0,0,1,5.3-24.38,230.68,230.68,0,0,1,8.9-26.26,273.62,273.62,0,0,1,13.63-28.54,322.36,322.36,0,0,1,19.88-31.56q-5.68,0-15.53,7.77a188.46,188.46,0,0,0-21.2,20.1q-11.35,12.32-23.47,27.67T178.34,890q-14,19.72-23.28,34.5t-13.44,17.44q-9.85-7.2-13.63-15.52a79.45,79.45,0,0,1-5.68-18.55,170.77,170.77,0,0,1,2.84-22.72,227.11,227.11,0,0,1,7-28,361.17,361.17,0,0,1,22.53-54.9q13.81-27.26,26.69-50a65.28,65.28,0,0,1,19.12,7.19,89.84,89.84,0,0,1,18,14.39,117.47,117.47,0,0,1-11.73,24.8q-8,13.07-16.66,27.45a330.52,330.52,0,0,0-15.9,29.53,107.64,107.64,0,0,0-9.47,30.67q10.59-15.15,25.18-34.84t29.91-37.1a244.83,244.83,0,0,1,30.48-29.53q15.14-12.12,27.26-12.12a36,36,0,0,1,9.84,1.52,57.11,57.11,0,0,1,9.84,3.78,65.7,65.7,0,0,1,7.58,4.36c2,1.39,3.15,2.46,3.4,3.22q-1.89,7.58-8.89,20.63t-15,27.45q-8,14.39-14.76,27.83t-7.95,21.39q18.54-25.36,34.83-46a451.61,451.61,0,0,1,30.66-35.4q14.39-14.78,26.7-22.72t23.28-8a27.05,27.05,0,0,1,14.2,4,21.23,21.23,0,0,1,9.28,11.54,187.62,187.62,0,0,1-11.17,27.26q-7.77,15.9-15.72,33.51t-14.19,34.64q-6.25,17-6.25,30.67,0,8,2.27,10.41a8.29,8.29,0,0,0,6.44,2.46,21.5,21.5,0,0,0,8.52-1.7,17,17,0,0,1,5.86-1.7,5.59,5.59,0,0,1,2.65,3.78,25.91,25.91,0,0,1,.38,4.17,88.11,88.11,0,0,1-15.52,10,39.23,39.23,0,0,1-17.8,4q-9.07,0-14.95-3a26.68,26.68,0,0,1-9.65-8.32,32.66,32.66,0,0,1-5.31-12.09,67.85,67.85,0,0,1-1.51-14.75,98,98,0,0,1,3.41-25.52,200.72,200.72,0,0,1,8.14-24.19q4.72-11.53,10-21.55T345.31,816.41Z"/><path class="cls-1" d="M558.46,873.77q-8.7,27.65-17.41,50.36A421.76,421.76,0,0,1,522.5,966a295.48,295.48,0,0,1-21.21,35.21,274.18,274.18,0,0,1-25,30.48q-17.43,18.18-36,27.83t-37.1,9.65a85.25,85.25,0,0,1-18.75-2.08,93.92,93.92,0,0,1-17.41-5.68,71.66,71.66,0,0,1-14.39-8.33,29.71,29.71,0,0,1-8.9-10q0-4.54,5.3-8,4.55,4.15,7.58,6.44a46.34,46.34,0,0,0,5.86,3.78,17.22,17.22,0,0,0,6.06,1.9,67,67,0,0,0,7.38.37q21.58,0,42.22-12.68t39-36q18.36-23.28,33.5-56.41t25.75-74Q511.52,876,504.32,887a268.4,268.4,0,0,1-15.9,21.71,192.44,192.44,0,0,1-18,19.44q-9.29,8.68-18,11.71a41.89,41.89,0,0,1-12.68-2.1,51.21,51.21,0,0,1-12.49-5.91,47,47,0,0,1-10.41-9.14,27.67,27.67,0,0,1-6.06-12.19,163.87,163.87,0,0,1,.75-17.61,126.64,126.64,0,0,1,2.65-14.58,297.37,297.37,0,0,1,10-32.56A328.16,328.16,0,0,1,439.77,810,262.83,262.83,0,0,1,459.46,777Q470.25,761.7,482,753a62.62,62.62,0,0,1,7.57.56,55.8,55.8,0,0,1,9.46,2.09,78.75,78.75,0,0,1,9.47,3.59,27.13,27.13,0,0,1,8,5.49q-4.17,3.79-18.17,25.37t-31,62.09a128.6,128.6,0,0,0-4.54,12.12q-2.65,8-5.11,16.65t-4.36,17a63.59,63.59,0,0,0-1.89,13.25,8.73,8.73,0,0,0,.94,4.55,12.6,12.6,0,0,0,1.71,2.27q6.81-1.14,18.17-11.17t25.75-31.24Q507,862,514.55,848.59t15-27.07q7.38-13.62,15.33-28t17-29.53a54,54,0,0,1,10.6,1.13,99.09,99.09,0,0,1,11,2.84,59.3,59.3,0,0,1,9.28,3.79,19.34,19.34,0,0,1,5.87,4.35q-11.75,25-22,48.84T558.46,873.77Z"/><path class="cls-2" d="M613.74,858.5A219.26,219.26,0,0,1,620,806.38a233.64,233.64,0,0,1,17.61-48.52,219.69,219.69,0,0,1,27.07-42.08,198.31,198.31,0,0,1,34.45-33.17,155.85,155.85,0,0,1,39.94-21.79A125.4,125.4,0,0,1,782.6,653q26.13,0,40.7,11t14.58,30.67a61.47,61.47,0,0,1-2.08,15.52,77.53,77.53,0,0,1-6.06,15.71,107.58,107.58,0,0,1-9.28,15,69,69,0,0,1-11.73,12.49,29.45,29.45,0,0,1-17-8.89,33.2,33.2,0,0,1-9.09-17.23,103.53,103.53,0,0,0,21-22.91q7.75-11.93,7.76-21.77,0-16.65-20.83-16.66a49.73,49.73,0,0,0-18,3.6,94.26,94.26,0,0,0-18.74,10,121,121,0,0,0-18.36,15.53A151.09,151.09,0,0,0,719,715.13Q666.37,790.87,666.37,870q0,28,8.71,45t23.09,20.07q16.27-3.79,41.27-20.83T794,870a15.22,15.22,0,0,1,4.55,8q-11,14.31-22.72,27.51T752.5,929.57a252.76,252.76,0,0,1-22.71,19.23,129.52,129.52,0,0,1-20.64,12.81q-46.95,0-71.18-26.15T613.74,858.5Z"/><path class="cls-3" d="M1065.63,746.53q9.84,3,18.55,13.44a69.92,69.92,0,0,1,12.88,22.91,182.52,182.52,0,0,1-12.88,24.6q-8.7,14.4-17.41,29.35t-15.71,28.39q-7,13.44-8.14,22.15,6-6.43,13.44-15t14.38-17q7-8.52,13.07-15.52t9.46-10.42q7.18-7.56,17-17.6a265.23,265.23,0,0,1,20.63-18.93,155.15,155.15,0,0,1,21.77-15.15q11-6.24,20.07-6.24a22.39,22.39,0,0,1,16.47,6.62A58.12,58.12,0,0,1,1199.66,792c0,.51-1,1.2-2.84,2.08s-4.61,3.35-8.14,7.39a148.31,148.31,0,0,0-11.92,18.74q-6.63,11.93-12.88,25.74a210.71,210.71,0,0,0-10.41,28.21,94.63,94.63,0,0,0-4.16,26.12c0,6.32.81,10.36,2.46,12.12a9.06,9.06,0,0,0,7,2.65,22.65,22.65,0,0,0,8.71-1.89,20.25,20.25,0,0,1,7.19-1.9,5.65,5.65,0,0,1,2.46,3.22,12.47,12.47,0,0,1,.95,4.35,59.7,59.7,0,0,1-7.19,5.31q-4.17,2.64-8.71,4.92a76.16,76.16,0,0,1-8.9,3.78,24,24,0,0,1-7.76,1.52q-11,0-18-3.22a27.79,27.79,0,0,1-11-8.52,31.15,31.15,0,0,1-5.49-12.68,76.42,76.42,0,0,1-.76-25.94,91.52,91.52,0,0,1,3-13.44q2.27-7.75,6.43-18.55T1130.38,826q-.77,0-10.23,5.3t-20.44,16.28a458.88,458.88,0,0,0-32,33.69q-14.19,16.66-29,37.11-8.32,11.73-14.57,19.87t-10.8,10.79a27.74,27.74,0,0,1-11.73-12.68A79.8,79.8,0,0,1,996,919.55a101,101,0,0,1,2.08-18.17q2.09-11,5.68-24.42t8.9-28.21q5.29-14.76,11.73-29.53,14.39-33.32,26.32-52.25T1065.63,746.53Z"/><path class="cls-3" d="M1216.44,787.24c-1.27-1.52-2.4-4.73-3.41-9.66a64.49,64.49,0,0,1-1.52-12.68,124.67,124.67,0,0,0,18.93,1.52h16.66q5.69-11.24,12.31-22.28t12.87-20.21A176.31,176.31,0,0,1,1284,708.39q5.48-6.36,8.52-8.23a45.78,45.78,0,0,1,9.65,1.32,121.67,121.67,0,0,1,22.91,7.77c3.27,1.51,5.55,3,6.81,4.54q-11.36,14.28-19.5,26.51t-17.6,28h15.33a110.85,110.85,0,0,0,15.72-1.14,14,14,0,0,1,3,4.73,15.68,15.68,0,0,1,1.14,5.87Q1311.47,785,1285,785q-9.46,18.22-16.84,36.25T1255.62,856a301.83,301.83,0,0,0-7.95,31.51,142.73,142.73,0,0,0-2.84,26.56q0,16.71,12.5,18.6a87.14,87.14,0,0,0,21.58-5.67,71.52,71.52,0,0,0,18.17-10.61,15.85,15.85,0,0,1,2.65,5.68,40,40,0,0,1-7.76,7.9q-5.49,4.51-11.93,8.84a114.57,114.57,0,0,1-12.49,7.33q-6.06,3-9.09,3.38a50.71,50.71,0,0,1-18.93-3.78,78.18,78.18,0,0,1-17.22-9.48,55.16,55.16,0,0,1-12.69-12.7q-4.92-7-4.92-13.84a135.7,135.7,0,0,1,2.46-22.93q2.46-13.83,7-30.13t10.61-34.12q6-17.82,13.25-35.25Z"/><path class="cls-3" d="M1331.88,920.49q1.89-11,6.62-29t11.17-38.24q6.43-20.25,13.63-40.7t14-36.73A173.93,173.93,0,0,1,1386,757.5a52.59,52.59,0,0,1,8.33-11.17,63.73,63.73,0,0,1,11,2.65,84.5,84.5,0,0,1,11,4.54,83,83,0,0,1,9.46,5.49,33.12,33.12,0,0,1,6.44,5.49,139.14,139.14,0,0,0-18,27.64q-7.77,15.52-15.72,39.75,20.45-18.17,36.16-34.83A280.81,280.81,0,0,0,1464,760q2.28-1.89,8-1.89a31,31,0,0,1,10.23,1.7c3.27,1.14,5.55,2.72,6.81,4.73a102,102,0,0,0-6.81,36q0,16.66,4.92,25-.39,2.26-5.11,8.71a106.06,106.06,0,0,1-10.41,12.11,60.38,60.38,0,0,1-18.18-14.58,61.87,61.87,0,0,1-11.73-20.25,261.49,261.49,0,0,0-30.29,24.42,130.25,130.25,0,0,0-21.39,26.5,160.86,160.86,0,0,0-15.15,33.51,454.93,454.93,0,0,0-11.93,45,28.75,28.75,0,0,1-8.14-2.46,69.59,69.59,0,0,1-9.46-5.11,65,65,0,0,1-8.52-6.43A17.53,17.53,0,0,1,1331.88,920.49Z"/><path class="cls-3" d="M1536.13,945.5q-21.59-2.28-34.45-18.93t-12.88-42.41a116.71,116.71,0,0,1,4.55-31.42,150.68,150.68,0,0,1,12.87-31.62,177.08,177.08,0,0,1,19.69-29,142.85,142.85,0,0,1,24.61-23.47q20.81-15.53,39-15.53,12.12,6.45,23.85,26.89a26.9,26.9,0,0,0,3.41-.19,26.9,26.9,0,0,1,3.41-.19q20.07,0,20.07,35.59a131.47,131.47,0,0,1-7.77,45.24,137.31,137.31,0,0,1-21.58,38.81A128.44,128.44,0,0,1,1578,928.65,130.85,130.85,0,0,1,1536.13,945.5Zm19.31-119.27a173.16,173.16,0,0,0-12.12,18.94,180.14,180.14,0,0,0-9.84,20.63,141.92,141.92,0,0,0-6.44,20.07,76.34,76.34,0,0,0-2.27,17.22,50.55,50.55,0,0,0,3,17.42q3,8.32,6.81,9.46a82.56,82.56,0,0,0,31.24-14.19,103,103,0,0,0,24.61-25.94,128.87,128.87,0,0,0,16.28-35.21,146.44,146.44,0,0,0,5.87-42,82.89,82.89,0,0,0-1.14-15.53,28.86,28.86,0,0,0-3.78-9.84,81.59,81.59,0,0,0-29.73,15.9A155,155,0,0,0,1555.44,826.23Z"/><path class="cls-3" d="M885.41,944.45q-21.57-2.26-34.45-18.93t-12.87-42.4a116.76,116.76,0,0,1,4.54-31.43,151.46,151.46,0,0,1,12.87-31.61,177.8,177.8,0,0,1,19.69-29,143.61,143.61,0,0,1,24.61-23.47q20.82-15.52,39-15.52,12.11,6.43,23.85,26.88a27,27,0,0,0,3.41-.19,28.77,28.77,0,0,1,3.41-.19q20.06,0,20.06,35.59a131.66,131.66,0,0,1-7.76,45.24,137.42,137.42,0,0,1-21.58,38.81,128.78,128.78,0,0,1-32.94,29.34A130.68,130.68,0,0,1,885.41,944.45Zm19.31-119.26a173,173,0,0,0-12.11,18.93,180.23,180.23,0,0,0-9.85,20.63,140.55,140.55,0,0,0-6.43,20.07,75.86,75.86,0,0,0-2.27,17.23,50.53,50.53,0,0,0,3,17.41q3,8.34,6.82,9.47a82.58,82.58,0,0,0,31.24-14.2,102.75,102.75,0,0,0,24.6-25.93A128.78,128.78,0,0,0,956,853.58a146.39,146.39,0,0,0,5.87-42A83.7,83.7,0,0,0,960.76,796a28.84,28.84,0,0,0-3.79-9.85,81.85,81.85,0,0,0-29.72,15.9A155.13,155.13,0,0,0,904.72,825.19Z"/><path class="cls-3" d="M1640.57,908q0-16.65,8-46.75T1670.86,791q23.48-64,44.11-106.57T1755.29,618a46.74,46.74,0,0,1,11.17,3.79q6.61,3,13.06,6.62a108.88,108.88,0,0,1,11.55,7.38q5.1,3.8,6.62,6.06a467.35,467.35,0,0,0-51.87,75q-22.33,40.13-40.89,92-15.9,44.67-24.23,80.45t-8.33,59.63v8a12.56,12.56,0,0,0,.38,3,29.46,29.46,0,0,1-9.08-2.65c-2.53-1.26-4.17-2.78-4.93-4.54q-.75-1.89-4.16-5.49a44,44,0,0,0-6.06-5.49q-3.4-2.26-5.68-11.93A95.46,95.46,0,0,1,1640.57,908Z"/><image width="900" height="900" transform="translate(631.26 -20.96) scale(0.73)" xlink:href="../cadeado-tech-2.png"/></svg>